<?xml version="1.0" encoding="UTF-8"?>
<svg version="1.1" xmlns="http://www.w3.org/2000/svg" width="2000" height="539">
<path d="M0 0 C0.87839035 -0.00701431 1.7567807 -0.01402863 2.66178894 -0.02125549 C5.4790059 -0.03864966 8.29601258 -0.0451072 11.11328125 -0.046875 C12.07631165 -0.04754974 13.03934204 -0.04822449 14.03155518 -0.04891968 C28.35720616 -0.03296418 42.33970623 0.35534849 56.42578125 3.203125 C57.30202148 3.37473145 58.17826172 3.54633789 59.08105469 3.72314453 C82.56423225 8.45445092 104.96995297 17.06615625 124.42578125 31.203125 C125.63041016 32.07130859 125.63041016 32.07130859 126.859375 32.95703125 C140.41974857 43.26647783 151.61053541 55.66831249 160.42578125 70.203125 C160.98386475 71.12279053 160.98386475 71.12279053 161.55322266 72.06103516 C188.26132769 117.03357023 186.87382186 175.04464941 174.42578125 224.203125 C172.64825709 230.94340933 170.63337459 237.59186538 168.42578125 244.203125 C168.19810059 244.88745605 167.97041992 245.57178711 167.73583984 246.27685547 C150.43503259 297.27597186 114.47566784 339.14432114 66.39868164 363.33911133 C13.09655824 389.46479768 -53.02178656 394.50427475 -109.57421875 375.890625 C-124.84305621 370.62105255 -138.51211125 363.70248047 -151.57421875 354.203125 C-152.91033203 353.23439453 -152.91033203 353.23439453 -154.2734375 352.24609375 C-185.85750655 328.08758682 -201.90871142 292.54504373 -207.62695312 253.88696289 C-210.51892338 230.96592417 -209.15955112 206.92579756 -205.57421875 184.203125 C-205.41856445 183.1929834 -205.26291016 182.1828418 -205.10253906 181.14208984 C-196.27454481 126.06844506 -167.99384302 73.25180019 -122.35009766 40.19360352 C-86.94206966 15.14024496 -43.50115807 0.23434913 0 0 Z M-68.57421875 127.203125 C-69.33347656 127.93917969 -70.09273437 128.67523438 -70.875 129.43359375 C-93.24951364 152.50368812 -99.08970534 186.90491002 -98.7890625 217.75 C-98.32398083 237.72829098 -91.39375139 255.44934432 -76.828125 269.359375 C-59.70919331 283.36307648 -37.26934774 286.50287215 -15.8515625 284.9296875 C4.57691444 282.7962702 23.00077049 276.13367105 38.42578125 262.203125 C39.17085937 261.55085937 39.9159375 260.89859375 40.68359375 260.2265625 C62.43028104 239.9953238 71.52633386 208.06727156 72.5859375 179.19140625 C73.14722043 157.26059495 68.66844804 136.12698413 53.36328125 119.515625 C38.74453897 105.64273691 18.88505374 100.78384077 -0.76171875 100.890625 C-1.85669678 100.89626465 -2.9516748 100.9019043 -4.07983398 100.90771484 C-28.79331084 101.27540449 -50.89544817 109.58357978 -68.57421875 127.203125 Z " fill="#234182" transform="translate(973.57421875,72.796875)"/>
<path d="M0 0 C0.75023437 0.3403125 1.50046875 0.680625 2.2734375 1.03125 C13.85385122 6.88074225 21.56924777 15.79435166 26.09765625 27.9453125 C30.12363413 41.98942138 27.52868606 56.56467975 25.59375 70.7421875 C25.37450144 72.39580566 25.15607638 74.04953321 24.93847656 75.70336914 C24.13557555 81.76190294 23.31687626 87.81833467 22.5 93.875 C20.685 107.44625 18.87 121.0175 17 135 C53.3 135 89.6 135 127 135 C128.485 122.13 128.485 122.13 130 109 C131.10397099 99.89190626 132.25142391 90.79005149 133.42456055 81.69067383 C133.77087424 78.99935461 134.11062122 76.30732111 134.44506836 73.61450195 C134.93867126 69.6410138 135.45115726 65.6701611 135.96484375 61.69921875 C136.10977768 60.51357834 136.25471161 59.32793793 136.40403748 58.10636902 C139.03321229 38.21235302 146.47317386 22.67165443 161.76953125 9.640625 C176.53599964 -1.59794608 191.81367778 -4.51363481 210 -3 C221.45393922 -0.84165599 231.85939066 5.78817943 239 15 C251.75627018 35.98711633 246.88441622 59.16051741 243.75878906 82.41186523 C243.40941723 85.09009899 243.0611615 87.76845696 242.7142334 90.44700623 C241.87447901 96.91031929 241.01975286 103.37156265 240.15947893 109.8321731 C239.15512223 117.37867482 238.16538784 124.92707393 237.17592761 132.47554065 C235.4088119 145.95231957 233.62766189 159.42720614 231.83886719 172.90112305 C230.10831387 185.9363725 228.38938563 198.97308939 226.68261719 212.01147461 C224.81678991 226.26482257 222.94465168 240.51731454 221.06154037 254.76839024 C220.86037844 256.29079952 220.65921872 257.8132091 220.45806122 259.33561897 C220.3591161 260.08438477 220.26017098 260.83315058 220.15822752 261.60460625 C219.46543375 266.85023153 218.77691298 272.09640728 218.08997345 277.34280205 C217.25190019 283.74203313 216.40643089 290.14023849 215.55189303 296.53729247 C215.11710809 299.79328821 214.68642442 303.0497278 214.26233673 306.30713654 C211.31183694 328.94098357 208.77024265 348.17366958 192 365 C191.31164063 365.7115625 190.62328125 366.423125 189.9140625 367.15625 C178.79103504 377.90713156 164.22347624 382.95551657 148.9375 383.375 C135.71031256 383.0230571 124.11221629 378.97778742 114.25 370 C104.51882736 359.65735331 100.74850002 346.93680734 100.82131958 333.04208374 C101.08804328 324.61488537 102.45981071 316.23875126 103.58984375 307.89453125 C103.85712491 305.87774401 104.12376124 303.86087122 104.38978577 301.84391785 C104.94534345 297.64515332 105.50644716 293.44718266 106.07202148 289.24975586 C106.79773817 283.86275631 107.5127235 278.47440088 108.22405148 273.0854845 C108.77264245 268.93395524 109.32510478 264.78294913 109.87893867 260.63211632 C110.14408327 258.64383334 110.40841288 256.6554415 110.67191887 254.66694069 C111.03922198 251.90220514 111.41132164 249.1381596 111.78491211 246.37426758 C111.8935257 245.55096451 112.00213928 244.72766144 112.11404419 243.87940979 C112.88543831 238.22912338 112.88543831 238.22912338 114 236 C77.37 236 40.74 236 3 236 C2.505 242.435 2.505 242.435 2 249 C1.67199231 251.97027938 1.32859765 254.92708484 0.94018555 257.88867188 C0.83917542 258.67923477 0.73816528 259.46979767 0.63409424 260.28431702 C0.30547886 262.84630827 -0.02836192 265.40757568 -0.36328125 267.96875 C-0.47872976 268.85630478 -0.59417828 269.74385956 -0.71312523 270.65830994 C-1.32335899 275.348729 -1.93763362 280.03859728 -2.55541992 284.72802734 C-3.18735946 289.53082884 -3.80556469 294.33529318 -4.42062092 299.14028168 C-4.90122817 302.87510397 -5.39199853 306.60854216 -5.88542747 310.34169006 C-6.11757182 312.11116561 -6.34602934 313.88112942 -6.57048988 315.65159607 C-9.32644362 337.32200266 -14.99237951 355.4778687 -32.4765625 370.06640625 C-45.52487524 379.65588053 -60.79263427 384.4463786 -77 383 C-89.17833932 381.04113994 -99.63598254 376.1972146 -108 367 C-123.04528665 346.0417186 -117.97889223 321.8411282 -114.75878906 297.81518555 C-114.40952777 295.1372338 -114.0612789 292.45916761 -113.7142334 289.78092957 C-112.87344096 283.3108019 -112.0189895 276.84255223 -111.15947893 270.37488737 C-110.15615542 262.8217248 -109.16593524 255.26686084 -108.17592761 247.71194348 C-106.40780165 234.22309964 -104.62677642 220.73599033 -102.83886719 207.24975586 C-101.10892462 194.20075475 -99.39005084 181.15035421 -97.68261719 168.09838867 C-95.81676502 153.83553737 -93.94453255 139.57354992 -92.06154037 125.31295043 C-91.86037658 123.78938685 -91.65921685 122.26582273 -91.45806122 120.74225807 C-91.3591161 119.99290229 -91.26017098 119.24354652 -91.15822752 118.47148299 C-90.46534242 113.22088287 -89.77682956 107.96972031 -89.08997345 102.71832848 C-88.25185432 96.31173671 -87.4063917 89.90616234 -86.55189303 83.50173392 C-86.1170957 80.2417023 -85.68641379 76.98122587 -85.26233673 73.71977997 C-82.06526816 49.1631573 -78.85081552 26.65821243 -58.48828125 9.9375 C-42.33950273 -1.8255035 -19.21423323 -8.92346412 0 0 Z " fill="#234182" transform="translate(1300,76)"/>
<path d="M0 0 C10.50645097 8.47294433 15.63285515 19.9404561 17.54296875 33.05078125 C18.26617755 42.93888711 16.43819509 52.84892403 15.13671875 62.62109375 C14.8895378 64.51244951 14.64292408 66.40387948 14.39685059 68.29537964 C13.75147584 73.24440593 13.09845913 78.192394 12.44378662 83.14019775 C11.77556879 88.20092774 11.11466499 93.2626123 10.453125 98.32421875 C9.15685204 108.23401485 7.85249495 118.14272841 6.54296875 128.05078125 C7.02412643 127.56708572 7.50528412 127.0833902 8.00102234 126.58503723 C8.63192276 125.95216293 9.26282318 125.31928864 9.9128418 124.66723633 C10.53837448 124.0391658 11.16390717 123.41109528 11.80839539 122.76399231 C13.59292938 121.00143592 15.43273046 119.34852032 17.35546875 117.73828125 C20.5663063 114.97460096 23.5656404 112.06458529 26.54296875 109.05078125 C30.08529074 105.46519426 33.71852536 102.10186463 37.546875 98.828125 C40.60963602 96.10100902 43.44520368 93.15673488 46.32421875 90.23828125 C48.95067997 87.64881244 51.71273333 85.26241161 54.51171875 82.86328125 C56.77935447 80.83985245 58.90873825 78.71424778 61.04296875 76.55078125 C64.40411357 73.14359335 67.87998078 69.97619951 71.51171875 66.86328125 C73.77935447 64.83985245 75.90873825 62.71424778 78.04296875 60.55078125 C80.77126282 57.78517717 83.52813709 55.13791094 86.48046875 52.61328125 C89.65332795 49.89458877 92.60635257 47.0232645 95.54296875 44.05078125 C99.08529074 40.46519426 102.71852536 37.10186463 106.546875 33.828125 C109.60963602 31.10100902 112.44520368 28.15673488 115.32421875 25.23828125 C117.95359137 22.64594205 120.71700986 20.25618598 123.5234375 17.859375 C125.74397983 15.87076553 127.7886793 13.76083335 129.85546875 11.61328125 C142.89693522 -1.54022531 157.93152959 -9.15509293 176.48046875 -9.38671875 C190.38837969 -9.30316073 201.07236103 -5.13199302 211.29296875 4.36328125 C220.78469168 14.33837896 223.9278668 27.22705034 223.74609375 40.6328125 C222.73887571 57.58119306 213.8730919 72.53784837 201.6171875 83.82421875 C200.34805486 84.94357797 199.06644125 86.04892723 197.7734375 87.140625 C194.96754629 89.54356861 192.25679864 92.0452534 189.54296875 94.55078125 C185.61066027 98.1722594 181.64081379 101.74038337 177.6015625 105.2421875 C175.05340225 107.48089375 172.54886282 109.76488337 170.04296875 112.05078125 C166.92389864 114.89602353 163.79541484 117.72277705 160.60546875 120.48828125 C156.65629508 123.91846701 152.8127457 127.46081643 148.96508789 131.00366211 C145.57834256 134.11677424 142.14390626 137.16330207 138.66796875 140.17578125 C135.92473457 142.596282 133.23412307 145.07278767 130.54296875 147.55078125 C126.6331528 151.15090881 122.68430407 154.6949573 118.66796875 158.17578125 C115.39619026 161.06264462 112.19175747 164.02313544 108.99121094 166.98852539 C105.39580895 170.30961408 101.70250882 173.47074026 97.87109375 176.515625 C96.10678812 178.21663287 96.10678812 178.21663287 96.54296875 182.05078125 C98.43765419 184.58136242 98.43765419 184.58136242 100.98046875 187.11328125 C101.90991448 188.09281589 102.83694617 189.07464601 103.76171875 190.05859375 C104.2309375 190.55649414 104.70015625 191.05439453 105.18359375 191.56738281 C107.22125924 193.790956 109.09686969 196.13378242 110.98046875 198.48828125 C114.20239976 202.48302111 117.5495237 206.29632474 121.04296875 210.05078125 C125.33251988 214.66082461 129.34707547 219.42861081 133.296875 224.3359375 C135.63127465 227.1575162 138.06287473 229.85668837 140.54296875 232.55078125 C143.81715298 236.10748369 146.94939308 239.72239936 149.98046875 243.48828125 C153.6386789 248.02394568 157.4903984 252.30779295 161.45678711 256.57006836 C165.23687397 260.65630993 168.74044748 264.92613107 172.22265625 269.26953125 C174.31775062 271.78082282 176.4860992 274.15886356 178.73242188 276.53198242 C190.58459509 289.07150106 196.98632044 301.35798811 196.75 318.78125 C195.66802923 335.86822235 187.79569831 349.6270591 175.54296875 361.05078125 C161.85325925 372.82118956 146.4645055 377.13191975 128.75244141 376.24169922 C115.54297979 375.10028497 105.0986664 367.75516052 96.54296875 358.05078125 C94.62433856 355.74671196 92.75773994 353.40918397 90.90625 351.05078125 C88.00994595 347.37415065 85.0601362 343.74305833 82.10546875 340.11328125 C81.5429541 339.42153809 80.98043945 338.72979492 80.40087891 338.01708984 C75.79287614 332.35238979 71.17121282 326.69895318 66.54296875 321.05078125 C65.04282594 319.21756477 63.54282793 317.38422979 62.04296875 315.55078125 C61.30046875 314.64328125 60.55796875 313.73578125 59.79296875 312.80078125 C44.04296875 293.55078125 44.04296875 293.55078125 41.77734375 290.78125 C40.32999824 289.0125533 38.88211574 287.24429582 37.43359375 285.4765625 C32.3897181 279.31898437 27.36700419 273.14448234 22.34960938 266.96533203 C16.98855816 260.36457701 11.61494299 253.77407557 6.203125 247.21484375 C1.84485201 241.92110119 -2.39769041 236.57703238 -6.45703125 231.05078125 C-8.35804988 239.67877731 -9.4944028 248.35715796 -10.61395073 257.11256027 C-10.959813 259.81395611 -11.31065815 262.51466389 -11.66285706 265.21524048 C-12.66267867 272.88703963 -13.6551534 280.55977427 -14.64086914 288.23339844 C-15.24665311 292.94657176 -15.85939207 297.6588001 -16.47627449 302.37053299 C-16.70812897 304.1521466 -16.93737346 305.9341021 -17.16381645 307.71641159 C-20.05511733 330.46400607 -25.31550802 349.86516301 -44.14453125 364.86328125 C-58.15180879 374.82004668 -73.84429917 379.0512746 -90.859375 376.55078125 C-103.38567567 373.97828543 -113.56492854 367.93580106 -121.31640625 357.5625 C-129.78082028 344.09067272 -130.35213762 330.356853 -128.28256226 314.99465942 C-128.15612198 314.02092215 -128.02968169 313.04718488 -127.89940989 312.04394042 C-127.47669083 308.79954342 -127.0457236 305.55629776 -126.61474609 302.31298828 C-126.30872116 299.97758328 -126.00320255 297.64211189 -125.69815063 295.30657959 C-124.86833193 288.96488402 -124.03129847 282.62415947 -123.19288969 276.28359461 C-122.39997945 270.28334191 -121.61332088 264.28226816 -120.8259929 258.28128098 C-119.26025974 246.34884875 -117.68909601 234.41713798 -116.11474609 222.48583984 C-114.60012429 211.00713865 -113.08879888 199.52801063 -111.58154297 188.04833984 C-111.48935153 187.34618977 -111.39716009 186.6440397 -111.30217497 185.92061235 C-111.11635075 184.50531329 -110.93052714 183.09001414 -110.74470416 181.67471492 C-110.65295133 180.97589202 -110.56119849 180.27706913 -110.46666527 179.55706978 C-110.37509129 178.85959698 -110.28351731 178.16212418 -110.18916836 177.44351584 C-108.73828727 166.39377932 -107.28467045 155.34440243 -105.83064239 144.29507963 C-105.22597912 139.70006197 -104.62177376 135.10498423 -104.01768112 130.50989151 C-102.28050463 117.30175253 -100.53386143 104.09497104 -98.76573098 90.89093721 C-97.90106002 84.42226003 -97.05485434 77.95154002 -96.22509277 71.47829497 C-95.71295258 67.50396082 -95.18793614 63.53139908 -94.6598599 59.55915427 C-94.42203783 57.74866029 -94.1896833 55.93743727 -93.96356273 54.12544465 C-91.47153305 34.19685094 -85.33400442 17.40338212 -69.45703125 4.05078125 C-48.54516872 -10.99017329 -22.10898573 -14.89884031 0 0 Z " fill="#234182" transform="translate(549.45703125,81.94921875)"/>
<path d="M0 0 C2.02301408 -0.00570865 4.04602494 -0.01267481 6.06903076 -0.02079773 C11.54218986 -0.03868897 17.01518828 -0.03756839 22.4883678 -0.03185534 C27.06581902 -0.02875784 31.64323964 -0.03486216 36.2206865 -0.04089409 C47.0229642 -0.0549243 57.8251628 -0.05339037 68.62744141 -0.04199219 C79.75423542 -0.0305107 90.8807884 -0.04459071 102.00755066 -0.07138866 C111.57813822 -0.09357168 121.14865027 -0.10017721 130.71926171 -0.09431225 C136.42770638 -0.09094793 142.13599654 -0.09332301 147.84441948 -0.11056328 C153.21340433 -0.12607189 158.58203304 -0.12203329 163.95100403 -0.10325813 C165.91532386 -0.0995832 167.8796703 -0.10264858 169.84396553 -0.11314392 C184.70966932 -0.18647622 196.34124713 1.32740723 208.03735352 11.40405273 C216.49955158 19.98171939 220.98601735 31.29160858 221.34985352 43.27905273 C221.13558209 59.02800278 214.9276967 72.94358109 204.19750977 84.37670898 C189.91117521 97.78467939 173.24440182 101.85914652 154.05541992 101.83642578 C152.73664352 101.84661743 151.41786713 101.85680908 150.05912781 101.86730957 C146.49186589 101.89455439 142.92476324 101.90411902 139.35741091 101.91016364 C135.61112609 101.91963338 131.86495639 101.94584265 128.1187439 101.97016907 C121.04666465 102.01360375 113.97460804 102.04229135 106.90243661 102.06549245 C98.84173869 102.09266868 90.7811579 102.13657174 82.7205441 102.18178117 C66.15954024 102.27429699 49.59851529 102.34612789 33.03735352 102.40405273 C32.91973947 103.29380484 32.80212542 104.18355694 32.6809473 105.10027122 C29.82231862 126.72393664 26.95972371 148.34707374 24.09268284 169.96962547 C22.70631506 180.4260254 21.32130315 190.88260161 19.93945312 201.33959961 C18.73539519 210.45114931 17.52882382 219.56236198 16.31919998 228.6731745 C15.67847274 233.49977237 15.03902779 238.32653248 14.4025898 243.15369797 C13.80406346 247.69301047 13.20218891 252.23186619 12.5976944 256.77038765 C12.37592696 258.43998912 12.15540473 260.10975651 11.93619347 261.77969551 C11.6377005 264.05218349 11.33481393 266.32404282 11.03077698 268.59579468 C10.7777448 270.50667153 10.7777448 270.50667153 10.51960087 272.45615196 C10.03735352 275.40405273 10.03735352 275.40405273 9.03735352 277.40405273 C9.741739 277.40036556 10.44612448 277.39667839 11.17185497 277.39287949 C28.35914462 277.30430858 45.54637584 277.23823663 62.7338438 277.19680405 C71.04579076 277.17623187 79.35758482 277.14821433 87.66943359 277.10229492 C94.91916428 277.06226256 102.16878416 277.03658114 109.41862231 277.02769876 C113.25276438 277.02251156 117.0865896 277.01043333 120.9206295 276.98113251 C124.53958704 276.9537031 128.15810139 276.9456623 131.77715302 276.95162201 C133.71775001 276.9500205 135.65830028 276.92864325 137.59877014 276.90637207 C150.97953088 276.96833422 162.02511776 280.37986656 172.03735352 289.40405273 C181.54004713 299.61944837 184.53353805 311.15712318 184.28344727 324.85327148 C183.16307441 341.01865119 175.5588443 353.54363109 164.03735352 364.40405273 C152.8281143 373.79093097 140.01570311 378.73879547 125.44303894 378.66474915 C124.62710543 378.66857469 123.81117193 378.67240024 122.97051316 378.67634171 C120.26250131 378.68658169 117.55470506 378.68269682 114.84667969 378.67871094 C112.89440212 378.68306243 110.94212625 378.68824704 108.98985291 378.69419861 C103.70460537 378.7075536 98.4194295 378.70817111 93.13416839 378.70563531 C88.71344313 378.70456309 84.29273222 378.70945544 79.87201005 378.71424073 C69.43744884 378.7253241 59.00292362 378.72578009 48.56835938 378.71972656 C37.82393499 378.71368885 27.07964163 378.72599539 16.33523959 378.74729663 C7.09247576 378.76494325 -2.15024648 378.77090911 -11.39302653 378.76765889 C-16.90531681 378.76585057 -22.41751365 378.76843699 -27.92978859 378.78237343 C-33.11649652 378.79499677 -38.30300105 378.79296515 -43.48970604 378.77996254 C-45.38587896 378.7776069 -47.2820664 378.78029485 -49.17822266 378.78858566 C-65.45588429 378.85458874 -79.86685224 377.52086087 -92.54077148 366.07592773 C-101.94257607 356.1760143 -106.3695625 345.12179634 -106.28547668 331.53999329 C-106.28143383 330.68039515 -106.27739097 329.82079701 -106.27322561 328.93515044 C-106.07296126 317.27177834 -104.37340137 305.76954359 -102.79736328 294.22900391 C-102.45630048 291.6594383 -102.11637764 289.08972117 -101.77749634 286.51986694 C-100.95707201 280.31441362 -100.12292797 274.11088245 -99.28390726 267.90791919 C-98.30448152 260.66273851 -97.33927445 253.41568385 -96.37456665 246.16853134 C-94.65161847 233.22875751 -92.91634657 220.29066732 -91.17382812 207.35351562 C-89.48807888 194.83773706 -87.81060611 182.3208873 -86.14257812 169.80273438 C-86.03972949 169.03089006 -85.93688085 168.25904574 -85.83091559 167.46381219 C-85.67689585 166.30792149 -85.67689585 166.30792149 -85.5197646 165.12867945 C-85.31295953 163.57665448 -85.10615154 162.0246299 -84.89934063 160.47260571 C-84.79731702 159.70695247 -84.69529341 158.94129923 -84.59017817 158.15244437 C-82.99257482 146.1654911 -81.38757488 134.17952682 -79.78176444 122.19367066 C-79.20264796 117.87048233 -78.62457206 113.54715638 -78.04726156 109.22372653 C-77.04540601 101.72123489 -76.03844361 94.21945305 -75.02602005 86.71837997 C-74.69180583 84.23671271 -74.35920806 81.75482709 -74.02840233 79.27270317 C-67.54217027 30.63875816 -67.54217027 30.63875816 -48.22827148 14.05639648 C-42.565876 9.77760893 -36.5700405 6.034 -29.96264648 3.40405273 C-29.09297446 3.03280226 -29.09297446 3.03280226 -28.2057333 2.65405178 C-19.10236072 -0.67770525 -9.54938481 -0.02434039 0 0 Z " fill="#234182" transform="translate(189.962646484375,76.595947265625)"/>
<path d="M0 0 C1.64276259 -0.00807831 1.64276259 -0.00807831 3.31871229 -0.01631981 C6.96572947 -0.03055638 10.61238147 -0.02350611 14.25941467 -0.01637268 C16.88340546 -0.02207845 19.50739377 -0.02904351 22.13137817 -0.03717041 C28.50519756 -0.05431637 34.87891817 -0.05520725 41.25275462 -0.04995751 C46.435975 -0.04590694 51.61916632 -0.04736986 56.80238533 -0.05270576 C57.54165129 -0.05345419 58.28091725 -0.05420261 59.04258521 -0.05497371 C60.54466284 -0.05650527 62.04674045 -0.05804362 63.54881806 -0.05958868 C77.61660438 -0.07329835 91.68433499 -0.06788669 105.75212003 -0.05640347 C118.60602956 -0.04647129 131.45979515 -0.05941417 144.31368249 -0.08333766 C157.5318222 -0.1077526 170.74989494 -0.11733074 183.96805674 -0.11068493 C191.38117159 -0.1071982 198.79417575 -0.10938863 206.20727348 -0.12693596 C213.1783849 -0.14323332 220.1492174 -0.13843911 227.12032127 -0.11963081 C229.67483722 -0.11594757 232.22937356 -0.11904561 234.7838707 -0.1295166 C238.27867357 -0.14274545 241.77256957 -0.13116084 245.26733398 -0.11352539 C246.27124567 -0.1231304 247.27515736 -0.1327354 248.30949062 -0.14263147 C259.89602699 -0.0228427 270.16976007 4.28140381 278.63465881 12.20018005 C288.1876006 22.41194541 291.18326398 33.89650105 290.93934631 47.58299255 C289.93852991 63.30549548 282.33757481 76.92242201 270.69715881 87.38768005 C258.58695018 96.95565542 245.62523782 101.52772805 230.10951233 101.50120544 C229.38672592 101.50135147 228.66393951 101.5014975 227.91925049 101.50164795 C225.5548237 101.50095705 223.19047791 101.49320357 220.82606506 101.4853363 C219.17697187 101.4834692 217.52787812 101.48204668 215.87878418 101.48104858 C211.556813 101.47724645 207.23487589 101.46743603 202.91291809 101.4563446 C198.49529989 101.44608076 194.07767614 101.44154034 189.66004944 101.43650818 C181.005737 101.42581153 172.35145216 101.40876302 163.69715881 101.38768005 C163.7193108 102.51752005 163.74146278 103.64736004 163.76428604 104.81143761 C163.76060366 109.47358355 163.24053376 113.99190318 162.62312317 118.6075592 C162.50752241 119.5028982 162.39192166 120.3982372 162.27281785 121.32070768 C161.88629864 124.30414283 161.49243643 127.28656014 161.098526 130.26902771 C160.81889285 132.41489887 160.53968316 134.56082525 160.26086426 136.70680237 C159.50329381 142.5259363 158.73901581 148.34417012 157.9729414 154.16218996 C157.49402057 157.80184322 157.01656583 161.4416857 156.5396347 165.08160019 C154.87395252 177.7938631 153.20287248 190.50540305 151.52674866 203.21629333 C149.96756277 215.04146517 148.42010884 226.86813185 146.87817073 238.69556391 C145.55152372 248.867563 144.21665478 259.03846145 142.87546849 269.20855367 C142.0756315 275.27469689 141.27905308 281.34122311 140.4907608 287.40887833 C139.74833482 293.12125635 138.99562252 298.83218852 138.2352314 304.542202 C137.95907686 306.62894128 137.68648253 308.71615557 137.41786766 310.80387878 C134.73049889 331.65738567 131.05740717 348.97605963 115.69715881 364.38768005 C115.00879944 365.09924255 114.32044006 365.81080505 113.61122131 366.54393005 C102.68842717 377.10127755 88.2426348 382.31113516 73.19715881 382.76268005 C59.76355656 382.37423854 47.97182709 378.49793603 37.94715881 369.38768005 C27.33786918 358.09269127 24.23381042 344.44300818 24.69715881 329.38768005 C24.96286137 326.04374321 25.38243366 322.73226979 25.83607483 319.40911865 C26.01983469 317.99844574 26.01983469 317.99844574 26.20730686 316.55927438 C26.61515553 313.44165955 27.03308683 310.32548485 27.45106506 307.20921326 C27.74723939 304.96139438 28.04278552 302.71349266 28.3377533 300.46551514 C29.13714479 294.38699329 29.94528313 288.30966327 30.75503159 282.23251367 C31.60095612 275.87240902 32.43878347 269.51123794 33.27748108 263.150177 C34.68524767 252.48141816 36.0979744 241.81332978 37.51454163 231.14573669 C38.97297255 220.16278017 40.4283856 209.17943062 41.879776 198.19554138 C41.96938587 197.51739635 42.05899574 196.83925132 42.15132105 196.14055643 C42.60089226 192.73817165 43.05040452 189.33577908 43.49988747 185.93338263 C47.22317275 157.75026906 50.95687504 129.56854237 54.69715881 101.38768005 C53.3686364 101.39767281 53.3686364 101.39767281 52.01327515 101.40786743 C43.61443574 101.46829703 35.21567069 101.51381499 26.81666279 101.54311657 C22.49995871 101.55868785 18.18343618 101.57976742 13.86683655 101.61399841 C9.69115637 101.64689986 5.5156494 101.66459703 1.33984947 101.67231178 C-0.24314407 101.67780064 -1.8261295 101.68851675 -3.40904808 101.70487022 C-19.00515405 101.85940179 -33.15855098 100.16930441 -45.39659119 89.57518005 C-54.14487937 80.36645565 -58.22375247 68.70884999 -58.33018494 56.1650238 C-57.55800647 39.553287 -50.38888733 25.33382557 -38.39659119 13.93455505 C-27.24480262 4.35730658 -14.59229924 -0.08716498 0 0 Z " fill="#234182" transform="translate(1632.3028411865234,76.61231994628906)"/>
<path d="M0 0 C0.93714844 0.4125 1.87429688 0.825 2.83984375 1.25 C17.48959337 8.48241496 28.18835912 21.15525968 33.5 36.5 C38.37518095 52.57004089 36.88903506 69.89076631 29.3125 84.875 C25.92280494 90.56729095 21.66200855 95.3214595 17 100 C16.45859375 100.56460938 15.9171875 101.12921875 15.359375 101.7109375 C4.48973502 112.08650293 -11.33863552 116.52987966 -26.00292969 116.34960938 C-42.39934292 115.77100443 -56.84261764 109.45240905 -68.375 97.88671875 C-72.29202565 93.57915631 -75.30520292 89.15181795 -78 84 C-78.48210937 83.08863281 -78.96421875 82.17726563 -79.4609375 81.23828125 C-86.62054104 66.07068185 -86.34001852 48.83660044 -80.8125 33.1875 C-74.07534984 17.16718364 -61.81008206 5.43702475 -45.8984375 -1.31640625 C-31.55349515 -6.22929223 -13.8873893 -6.18075741 0 0 Z " fill="#234182" transform="translate(324,210)"/>
</svg>
